<svg width="18" height="18" viewBox="0 0 18 18" fill="none" xmlns="http://www.w3.org/2000/svg">
<path d="M9 6.58125L12.2437 9.825L11.4375 10.6125L9 8.175L6.5625 10.6125L5.75625 9.825L9 6.58125ZM9 1.5C7.975 1.5 7.00625 1.69688 6.09375 2.09063C5.18125 2.48438 4.38437 3.02188 3.70312 3.70313C3.02187 4.38438 2.48437 5.18125 2.09062 6.09375C1.69687 7.00625 1.5 7.975 1.5 9C1.5 10.0375 1.69687 11.0125 2.09062 11.925C2.48437 12.8375 3.02187 13.6313 3.70312 14.3063C4.38437 14.9813 5.18125 15.5156 6.09375 15.9094C7.00625 16.3031 7.975 16.5 9 16.5C10.0375 16.5 11.0125 16.3031 11.925 15.9094C12.8375 15.5156 13.6312 14.9813 14.3062 14.3063C14.9812 13.6313 15.5156 12.8375 15.9094 11.925C16.3031 11.0125 16.5 10.0375 16.5 9C16.5 7.975 16.3031 7.00625 15.9094 6.09375C15.5156 5.18125 14.9812 4.38438 14.3062 3.70313C13.6312 3.02188 12.8375 2.48438 11.925 2.09063C11.0125 1.69688 10.0375 1.5 9 1.5ZM9 2.625C10.775 2.625 12.2812 3.24688 13.5187 4.49063C14.7562 5.73438 15.375 7.2375 15.375 9C15.375 10.775 14.7562 12.2813 13.5187 13.5188C12.2812 14.7563 10.775 15.375 9 15.375C7.2375 15.375 5.73437 14.7563 4.49062 13.5188C3.24687 12.2813 2.625 10.775 2.625 9C2.625 7.2375 3.24687 5.73438 4.49062 4.49063C5.73437 3.24688 7.2375 2.625 9 2.625Z" fill="white"/>
</svg>
